<svg width="252" height="158" viewBox="0 0 252 158" fill="none" xmlns="http://www.w3.org/2000/svg">
<path d="M190.377 76.7405C181.089 68.6969 168.177 64.2778 153.945 64.2778C139.931 64.2778 127.422 66.9874 115.718 72.5485L119.568 7.29122H196.169V2.22668H114.567L109.976 77.8967L113.161 79.6203L113.331 79.5281C125.65 72.7694 139.476 69.2622 153.514 69.3352C180.206 69.3352 199.588 86.3163 199.588 109.717V110.156C199.588 135.344 180.284 152.935 152.645 152.935C131.554 152.935 113.966 140.962 104.537 129.748L104.304 129.471L100.066 133.209L100.285 133.472C110.251 145.679 130.233 158 152.405 158C183.399 158 205.041 138.238 205.041 109.937V109.497C205.062 96.5801 199.849 84.9473 190.377 76.7405Z" fill="white"/>
<path d="M72.1868 89.062C99.1333 62.9307 101.365 50.5318 101.365 39.1331V38.6933C101.365 16.6335 82.0048 0 56.3227 0C28.006 0 12.4455 17.8677 4.37925 32.8627L4.21679 33.1677L8.9492 35.9199L9.12578 35.5936C16.6553 21.6697 30.9231 5.0929 56.1037 5.0929C78.4167 5.0929 95.8913 20.0595 95.8913 39.1402C95.8913 51.0283 91.2931 63.3918 68.8812 85.0685L0 152.049V155.39H103.534V150.319H9.03396L72.1868 89.062Z" fill="white"/>
<path d="M134.857 93.1241C137.362 95.4314 139.056 98.4508 140.251 101.86C142.243 107.541 142.578 113.737 141.975 119.272C141.573 122.961 139.095 133.628 133.941 135.451C133.124 135.74 132.61 135.283 132.278 134.336C131.127 131.053 132.458 122.353 133.989 120.676C135.129 119.493 139.146 116.441 138.327 114.105C138.017 113.221 137.4 112.872 136.709 113.116C135.389 113.583 133.801 115.705 133.139 116.436C130.685 119.716 128.039 124.057 125.944 127.352C125.43 128.101 125.252 128.803 125.429 129.308C125.672 130.002 126.518 130.199 127.084 129.999C127.713 129.777 128.146 129.198 128.397 129.109C128.46 129.087 128.545 129.128 128.567 129.191C128.589 129.254 128.571 129.403 128.552 129.551C128.307 131.27 128.453 133.702 129.139 135.659C129.935 137.931 131.479 139.514 134.057 138.603C144.806 134.802 147.839 113.225 143.369 100.474C140.182 91.3835 133.071 84.603 122.699 88.27C115.659 90.7591 112.409 95.5974 110.288 99.824C109.962 100.507 108.425 104.385 109.045 106.152C109.31 106.91 110.053 107.215 110.745 106.97C111.75 106.615 112.398 105.038 112.654 103.954C114.3 98.9733 117.346 93.3553 123.947 91.0218C127.97 89.5994 132.224 90.6496 134.857 93.1241Z" fill="#15161A"/>
<path d="M189.042 105.682C188.432 106.962 186.384 110.595 185.707 111.686C183.738 114.936 182.017 117.886 180.822 118.308C180.382 118.464 180.02 118.237 179.755 117.479C179.467 116.659 179.294 115.159 179.278 112.894C179.314 108.766 180.07 106.087 181.06 102.26C181.379 101.154 181.443 99.9254 181.155 99.1048C180.823 98.1579 179.722 97.8378 178.905 98.1267C177.71 98.5489 177.591 100.223 177.486 101.537C177.307 103.445 176.507 105.999 176.085 107.212C175.362 109.383 174.003 112.56 171.489 113.449C168.22 114.604 166.375 110.148 163.336 111.152C162.518 111.441 161.083 112.587 159.966 113.833C160.261 110.04 161.625 104.662 160.807 102.326C160.497 101.442 159.665 100.885 158.848 101.174C157.277 101.729 156.387 105.237 155.639 107.133C153.679 112.225 150.762 118.01 150.069 119.461C149.488 121.227 151.505 122.146 152.405 120.48C153.774 117.938 157.763 108.155 157.558 110.995C157.248 115.149 156.122 122.216 155.01 126.299C154.813 127.149 153.484 129.605 153.883 130.742C154.126 131.436 154.995 131.697 155.56 131.496C156.629 131.119 157.636 129.557 157.885 128.05C158.472 124.082 159.239 122.037 160.613 118.5C161.098 117.264 161.717 115.201 163.288 114.645C165.363 113.912 167.534 116.479 169.542 116.762C170.429 116.874 171.312 116.775 172.129 116.486C173.324 116.064 174.511 115.218 175.65 114.035C175.701 115.791 175.884 117.926 176.459 119.567C177.145 121.524 178.579 122.791 180.527 122.102C184.613 120.657 188.808 111.866 191.134 107.213C192.155 105.291 190.075 104.394 189.042 105.682Z" fill="#15161A"/>
<path d="M203.19 90.3919C202.371 88.0563 200.084 87.3751 198.072 88.0863C191.158 90.531 187.355 103.866 189.479 109.926C190.851 113.84 194.508 117.017 199.286 115.328C205.635 113.083 208.693 106.894 211.988 99.7686C212.781 97.9985 210.486 96.8941 209.712 98.5158C207.554 103.039 203.57 110.62 199.484 112.065C197.284 112.843 194.223 112.577 192.94 108.916C192.785 108.474 192.693 108.01 192.579 107.482C192.483 106.807 194.61 105.416 195.727 104.17C199.512 99.8516 204.939 95.3789 203.19 90.3919ZM198.377 91.1714C199.005 90.9492 199.544 91.6809 199.721 92.1859C200.673 94.9004 195.5 101.909 193.488 102.62C193.111 102.753 192.878 102.694 192.768 102.378C192.723 102.252 192.742 102.103 192.738 101.892C192.781 99.3934 195.485 92.1937 198.377 91.1714Z" fill="#15161A"/>
<path d="M215.956 53.0288C210.235 55.0512 206.604 61.0177 204.712 65.0922C204.245 66.1796 203.667 68.1578 203.999 69.1046C204.154 69.5465 204.727 69.7697 205.104 69.6364C205.858 69.3697 206.085 67.7996 207.144 65.5805C208.877 62.0589 212.148 57.2838 215.794 55.9948C220.194 54.4391 222.758 56.5125 223.865 59.6688C224.285 60.8682 224.476 62.2196 224.479 63.6377C224.493 64.4841 224.429 65.7128 224.695 66.4704C224.938 67.1647 225.637 67.3435 226.203 67.1435C227.397 66.7212 228.404 65.1591 227.907 61.9291C227.742 60.8524 227.495 59.9464 227.185 59.0626C225.392 53.9494 220.733 51.3397 215.956 53.0288ZM216.515 94.1241C216.128 97.4537 215.685 101.229 216.725 104.196C217.655 106.847 219.362 108.088 221.436 107.355C223.887 106.488 224.943 104.057 226.028 102.113C228.034 98.5656 229.567 95.6824 231.048 92.2497C231.84 90.4795 232.615 87.6514 233.943 86.4014C234.337 88.5325 233.773 91.3571 233.686 93.7292C233.611 95.5296 233.527 98.1133 234.169 99.9439C234.767 101.648 235.986 102.707 238.374 101.863C239.569 101.441 240.931 99.682 241.815 98.376C243.895 95.4412 246.069 90.5575 247.805 87.2476C247.927 86.9915 248.127 86.3531 247.928 85.785C247.707 85.1538 246.942 84.7856 246.376 84.9857C246.062 85.0968 245.751 85.4195 245.466 86.017C243.996 88.878 242.211 93.0566 240.753 95.3459C240.301 96.0732 239.021 97.661 238.078 97.9944C237.701 98.1277 237.383 98.0272 237.228 97.5853C236.609 95.8178 236.955 92.5736 237.089 90.5393C237.273 87.6365 237.619 84.3922 237.954 81.7197C238.043 80.7657 238.085 79.4738 237.731 78.4638C237.355 77.3907 236.483 76.9185 235.54 77.2519C233.591 77.9409 232.598 81.5558 232.031 82.9623C230.031 88.1394 227.923 93.2124 225.491 97.7617C224.614 99.491 222.4 103.253 221.017 103.742C220.64 103.876 220.3 103.712 220.145 103.27C219.326 100.935 219.59 99.0675 219.666 97.2671C219.887 92.8608 220.655 89.6095 221.109 85.2628C221.18 84.4573 221.311 82.2114 220.802 80.7595C220.47 79.8127 219.721 79.0845 218.778 79.4178C217.332 79.929 216.583 83.0319 216.179 84.097C214.886 87.463 212.001 93.946 210.613 96.6364C210.347 97.0853 209.377 98.3504 209.731 99.3605C209.953 99.9917 210.699 100.508 211.265 100.308C212.082 100.019 212.711 98.5907 212.771 98.3568C213.5 96.6089 215.996 90.8309 216.625 90.6086C216.688 90.5864 216.773 90.6273 216.795 90.6904C216.861 90.8798 216.738 92.3424 216.608 93.3817L216.515 94.1241Z" fill="#15161A"/>
</svg>
