<svg width="30" height="30" viewBox="0 0 30 30" fill="none" xmlns="http://www.w3.org/2000/svg">
<path d="M15.0001 0C6.72922 0 0.000119732 6.72913 0.000119732 15C0.000119732 17.5826 0.66722 20.1216 1.93243 22.3624L0.0243214 29.172C-0.038287 29.3957 0.0218044 29.635 0.183543 29.8013C0.308108 29.9298 0.478161 30 0.652291 30C0.704465 30 0.757443 29.9933 0.808965 29.9809L7.91534 28.2205C10.0851 29.3853 12.5283 30 15.0001 30C23.2709 30 30 23.2709 30 15C30 6.72913 23.2709 0 15.0001 0ZM9.54959 7.82609C9.80655 7.82609 10.0621 7.82966 10.2871 7.8401C10.5238 7.85184 10.8422 7.7501 11.1545 8.49227C11.4754 9.25401 12.2452 11.1252 12.3404 11.3162C12.4369 11.5067 12.5014 11.7287 12.3735 11.9824C12.2457 12.2361 12.1819 12.3956 11.9889 12.618C11.7958 12.8404 11.584 13.1134 11.4106 13.2842C11.2175 13.474 11.0168 13.6791 11.2412 14.06C11.4655 14.4408 12.2384 15.6859 13.3836 16.6941C14.8543 17.9893 16.0954 18.3914 16.4802 18.5819C16.865 18.7723 17.0902 18.74 17.3145 18.4863C17.5389 18.232 18.2772 17.3762 18.5335 16.996C18.7898 16.6158 19.0462 16.6778 19.3997 16.8049C19.7531 16.9315 21.6465 17.8513 22.0313 18.0418C22.4161 18.2322 22.6735 18.3279 22.7701 18.4863C22.8666 18.6442 22.8668 19.4049 22.5459 20.2925C22.225 21.1808 20.6857 21.9924 19.9461 22.1013C19.2822 22.1985 18.4418 22.2393 17.5196 21.9497C16.9607 21.7736 16.2438 21.5405 15.3249 21.1485C11.4621 19.5011 8.93888 15.66 8.74584 15.4063C8.55345 15.1526 7.174 13.3453 7.174 11.4742C7.174 9.6031 8.16818 8.68335 8.52166 8.30248C8.87513 7.92161 9.29263 7.82609 9.54959 7.82609Z" fill="white"/>
</svg>
