<svg width="94" height="28" viewBox="0 0 94 28" fill="none" xmlns="http://www.w3.org/2000/svg">
<path d="M53.8776 9.58185C53.2354 8.79681 52.5166 8.08344 51.7331 7.43215C51.1142 6.91658 50.4507 6.4446 49.7519 6.00349C49.5201 5.85781 49.2832 5.71736 49.0431 5.57805C48.9549 5.52726 48.8673 5.47712 48.779 5.42845C48.7268 5.39922 48.6769 5.36999 48.6237 5.34206C48.6714 5.36362 48.7173 5.38632 48.7627 5.40788C48.8717 5.46062 48.9798 5.51272 49.0866 5.56759C49.3336 5.69106 49.5765 5.82024 49.8117 5.95383C50.0548 6.09216 50.2931 6.23408 50.5258 6.3804C50.9866 6.67208 51.4253 6.98286 51.8446 7.31226C52.1688 7.56752 52.4795 7.83486 52.7796 8.11448C53.4585 8.74829 54.0768 9.44335 54.627 10.2015C54.8996 10.5769 55.157 10.9675 55.3999 11.3721C55.5185 11.5707 55.6419 11.7635 55.765 11.9563C55.6902 6.56636 52.1331 4.83049 47.1973 4.9463C48.6302 5.3977 49.6764 7.27284 50.1353 8.48285C51.6283 12.4096 53.4598 12.0297 55.6092 12.331C55.3821 11.8373 55.171 11.413 55.0915 11.285C54.7217 10.6835 54.3168 10.1174 53.8774 9.58178L53.8776 9.58185Z" fill="white"/>
<path d="M56.968 12.107C57.0047 11.8812 57.044 11.655 57.0836 11.4379C57.0204 11.4642 56.9571 11.4904 56.894 11.518C56.8476 11.3484 56.8074 11.1832 56.7675 11.0181C56.5751 11.6043 56.3871 12.192 56.2838 12.8307C56.123 12.5261 55.9439 12.2401 55.7623 11.9559C55.7639 12.0871 55.7658 12.2179 55.7634 12.3533C55.7105 12.3451 55.6587 12.3378 55.6064 12.3304C55.6776 12.4849 55.7501 12.6464 55.8208 12.8076C56.0702 13.3779 55.9278 13.9193 56.3391 14.2057C56.4759 14.3008 56.7432 14.0578 56.7661 14.0313C57.1903 13.5365 56.8377 12.9036 56.968 12.107L56.968 12.107Z" fill="white"/>
<path d="M56.77 11.6058C56.8626 11.3234 56.9564 11.0417 57.0414 10.7536C57.2163 10.1662 57.4135 9.59163 57.6347 9.03099C58.082 7.89924 58.6339 6.82477 59.2827 5.8062C59.5696 5.3576 59.8737 4.92008 60.1981 4.49363C60.6181 3.94277 61.0691 3.40875 61.5534 2.89104C61.7991 2.63138 62.0525 2.3753 62.3127 2.12215C62.5649 1.87701 62.828 1.63546 63.0988 1.39933C63.2153 1.29579 63.3346 1.19421 63.4536 1.09263C63.5041 1.05066 63.5551 1.00689 63.6069 0.964753C63.5494 1.0175 63.4957 1.07041 63.4398 1.12366C63.3451 1.2138 63.2507 1.3051 63.1566 1.39802C62.9 1.65165 62.6478 1.90578 62.4036 2.16428C61.6683 2.94672 60.9873 3.75709 60.3761 4.60697C59.6017 5.6806 58.9294 6.81201 58.3757 8.00697C57.9966 8.82353 57.6708 9.66688 57.3994 10.5427C57.3407 10.7289 57.2119 11.3306 57.0858 12.0253C59.6868 10.9427 62.1066 10.8189 62.719 5.40161C62.9062 3.73272 63.6167 1.03642 65.2703 0C59.0399 1.47357 55.1334 4.81797 56.7699 11.6059L56.77 11.6058Z" fill="white"/>
<path d="M9.19059 27.9997C7.87211 27.9997 6.6467 27.7881 5.51436 27.3649C4.39752 26.9418 3.42805 26.3462 2.60594 25.5782C1.78383 24.7946 1.1401 23.8777 0.674753 22.8277C0.224918 21.7776 0 20.6335 0 19.3953C0 18.1415 0.224918 16.9974 0.674753 15.963C1.1401 14.9129 1.78383 14.0039 2.60594 13.236C3.42805 12.4523 4.39752 11.8489 5.51436 11.4258C6.6467 11.0026 7.87211 10.791 9.19059 10.791C10.5246 10.791 11.75 11.0026 12.8668 11.4258C13.9837 11.8489 14.9531 12.4523 15.7752 13.236C16.5974 14.0039 17.2333 14.9129 17.6832 15.963C18.1485 16.9974 18.3812 18.1415 18.3812 19.3953C18.3812 20.6335 18.1485 21.7776 17.6832 22.8277C17.2333 23.8777 16.5974 24.7946 15.7752 25.5782C14.9531 26.3462 13.9837 26.9418 12.8668 27.3649C11.75 27.7881 10.5246 27.9997 9.19059 27.9997ZM9.19059 23.5094C9.70248 23.5094 10.1756 23.4154 10.6099 23.2273C11.0597 23.0392 11.4475 22.7728 11.7733 22.428C12.1145 22.0675 12.3782 21.6365 12.5644 21.135C12.7505 20.6178 12.8436 20.0379 12.8436 19.3953C12.8436 18.7528 12.7505 18.1807 12.5644 17.6792C12.3782 17.162 12.1145 16.731 11.7733 16.3862C11.4475 16.0257 11.0597 15.7514 10.6099 15.5634C10.1756 15.3753 9.70248 15.2812 9.19059 15.2812C8.67871 15.2812 8.19786 15.3753 7.74802 15.5634C7.3137 15.7514 6.92591 16.0257 6.58465 16.3862C6.25891 16.731 6.00297 17.162 5.81683 17.6792C5.63069 18.1807 5.53762 18.7528 5.53762 19.3953C5.53762 20.0379 5.63069 20.6178 5.81683 21.135C6.00297 21.6365 6.25891 22.0675 6.58465 22.428C6.92591 22.7728 7.3137 23.0392 7.74802 23.2273C8.19786 23.4154 8.67871 23.5094 9.19059 23.5094Z" fill="white"/>
<path d="M25.2836 24.0972L24.9811 18.0083L31.1237 11.1672H37.1034L30.2163 18.8311L27.1682 21.9813L25.2836 24.0972ZM20.3742 27.6235V11.1672H25.7722V27.6235H20.3742ZM31.0772 27.6235L26.2841 21.229L29.844 17.4206L37.4291 27.6235H31.0772Z" fill="white"/>
<path d="M43.2843 18.1729H50.4507V22.3575H43.2843V18.1729ZM43.6566 27.6235H38.1655V11.1672H51.4046V15.3518H43.6566V27.6235Z" fill="white"/>
<path d="M53.1393 27.6235V11.1672H58.6304V27.6235H53.1393Z" fill="white"/>
<path d="M64.8104 27.6235V15.4693H60.0406V11.1672H75.0713V15.4693H70.3015V27.6235H64.8104Z" fill="white"/>
<path d="M84.8094 27.9997C83.4909 27.9997 82.2655 27.7881 81.1332 27.3649C80.0163 26.9418 79.0469 26.3462 78.2247 25.5782C77.4026 24.7946 76.7589 23.8777 76.2936 22.8277C75.8437 21.7776 75.6188 20.6335 75.6188 19.3953C75.6188 18.1415 75.8437 16.9974 76.2936 15.963C76.7589 14.9129 77.4026 14.0039 78.2247 13.236C79.0469 12.4523 80.0163 11.8489 81.1332 11.4258C82.2655 11.0026 83.4909 10.791 84.8094 10.791C86.1434 10.791 87.3688 11.0026 88.4856 11.4258C89.6025 11.8489 90.5719 12.4523 91.3941 13.236C92.2162 14.0039 92.8521 14.9129 93.302 15.963C93.7673 16.9974 94 18.1415 94 19.3953C94 20.6335 93.7673 21.7776 93.302 22.8277C92.8521 23.8777 92.2162 24.7946 91.3941 25.5782C90.5719 26.3462 89.6025 26.9418 88.4856 27.3649C87.3688 27.7881 86.1434 27.9997 84.8094 27.9997ZM84.8094 23.5094C85.3213 23.5094 85.7944 23.4154 86.2287 23.2273C86.6785 23.0392 87.0663 22.7728 87.3921 22.428C87.7333 22.0675 87.997 21.6365 88.1832 21.135C88.3693 20.6178 88.4624 20.0379 88.4624 19.3953C88.4624 18.7528 88.3693 18.1807 88.1832 17.6792C87.997 17.162 87.7333 16.731 87.3921 16.3862C87.0663 16.0257 86.6785 15.7514 86.2287 15.5634C85.7944 15.3753 85.3213 15.2812 84.8094 15.2812C84.2975 15.2812 83.8167 15.3753 83.3668 15.5634C82.9325 15.7514 82.5447 16.0257 82.2035 16.3862C81.8777 16.731 81.6218 17.162 81.4356 17.6792C81.2495 18.1807 81.1564 18.7528 81.1564 19.3953C81.1564 20.0379 81.2495 20.6178 81.4356 21.135C81.6218 21.6365 81.8777 22.0675 82.2035 22.428C82.5447 22.7728 82.9325 23.0392 83.3668 23.2273C83.8167 23.4154 84.2975 23.5094 84.8094 23.5094Z" fill="white"/>
</svg>
