<svg width="40" height="40" viewBox="0 0 40 40" fill="none" xmlns="http://www.w3.org/2000/svg">
<path fill-rule="evenodd" clip-rule="evenodd" d="M20 40C31.0457 40 40 31.0457 40 20C40 8.9543 31.0457 0 20 0C8.9543 0 0 8.9543 0 20C0 31.0457 8.9543 40 20 40ZM14.18 19.6637C14.0738 19.7902 14.0111 19.9507 14.0017 20.1195L14.0015 20.1194C13.9891 20.3207 14.0533 20.5189 14.1798 20.6696L22.74 30.7304C22.8643 30.887 23.0431 30.9835 23.2358 30.9981C23.4285 31.0126 23.6185 30.9439 23.7624 30.8077C23.9064 30.6714 23.992 30.4791 23.9994 30.2751C24.0071 30.0709 23.9361 29.8721 23.8027 29.7244L15.6735 20.1667L23.8027 10.609C23.9361 10.4612 24.0071 10.2625 23.9994 10.0582C23.992 9.85422 23.9064 9.66193 23.7624 9.52561C23.6185 9.38946 23.4286 9.32069 23.2358 9.33525C23.0431 9.34981 22.8643 9.44631 22.74 9.60298H22.7402L14.18 19.6637Z" fill="#64A060"/>
</svg>
