<svg width="25" height="25" viewBox="0 0 25 25" fill="none" xmlns="http://www.w3.org/2000/svg">
<path d="M24.7254 0.592628C24.4014 0.272234 23.8834 0.272234 23.5918 0.592628L12.6461 11.3868L1.40888 0.240295C1.08495 -0.0800985 0.566961 -0.0800985 0.275333 0.240295C-0.0485982 0.560689 -0.0485982 1.07302 0.275333 1.36147L11.5125 12.508L0.242948 23.6545C-0.0809827 23.9749 -0.0809827 24.4872 0.242948 24.7757C0.404914 24.9359 0.599182 25 0.825742 25C1.05254 25 1.2468 24.9359 1.40854 24.7757L12.6781 13.6292L23.5915 24.4233C23.7534 24.5835 23.9477 24.6477 24.1743 24.6477C24.4011 24.6477 24.5953 24.5835 24.7571 24.4233C25.081 24.103 25.081 23.5906 24.7571 23.3022L13.8119 12.508L24.7252 1.7138C25.0166 1.39341 25.0168 0.8809 24.7254 0.592628Z" fill="#15161A"/>
</svg>
