<svg width="5" height="10" viewBox="0 0 5 10" fill="none" xmlns="http://www.w3.org/2000/svg">
<path d="M4.60425 4.7973C4.60026 4.7261 4.57382 4.65839 4.52904 4.60503L0.918131 0.361176H0.918201C0.865797 0.295087 0.790374 0.254384 0.70907 0.248242C0.627769 0.2421 0.547659 0.27111 0.486934 0.32854C0.426205 0.386045 0.390103 0.467155 0.386954 0.553218C0.383735 0.639363 0.413681 0.723212 0.469933 0.785531L3.89904 4.8172L0.469933 8.84886C0.413681 8.91118 0.383735 8.99503 0.386954 9.08118C0.390102 9.16725 0.426205 9.24836 0.486934 9.30586C0.547664 9.36328 0.627776 9.3923 0.70907 9.38615C0.79037 9.38001 0.865793 9.33931 0.918201 9.27322L4.52911 5.02936C4.58249 4.96579 4.60957 4.88216 4.60432 4.79727L4.60425 4.7973Z" fill="black"/>
</svg>
