<svg width="25" height="25" viewBox="0 0 25 25" fill="none" xmlns="http://www.w3.org/2000/svg">
<path fill-rule="evenodd" clip-rule="evenodd" d="M2.04862 0.71875H22.9932C23.8994 0.71875 24.6043 1.43364 24.4029 2.25066V23.1868C24.4029 24.0039 23.698 24.7188 22.8925 24.7188H1.94792C1.14236 24.7188 0.4375 24.0039 0.4375 23.1868V2.25066C0.4375 1.43364 1.14236 0.71875 2.04862 0.71875ZM4.56599 12.7698C4.56599 17.2634 8.19101 20.8379 12.5209 20.8379C16.8508 20.8379 20.4758 17.2634 20.4758 12.7698C20.4758 8.2762 16.9515 4.70173 12.5209 4.70173C8.09032 4.70173 4.56599 8.2762 4.56599 12.7698ZM20.1737 3.16981C20.1737 3.68045 20.5765 4.08896 21.08 4.08896C21.6841 4.08896 21.9862 3.68045 21.9862 3.16981C21.9862 2.65918 21.5834 2.25066 21.08 2.25066C20.5765 2.25066 20.1737 2.65918 20.1737 3.16981ZM6.65625 12.7517C6.65625 9.38664 9.40951 6.73535 12.6726 6.73535C15.9358 6.73535 18.689 9.38664 18.689 12.7517C18.689 16.1168 16.0377 18.7681 12.6726 18.7681C9.30754 18.7681 6.65625 16.1168 6.65625 12.7517ZM9.40951 9.38664C9.40951 9.8965 9.8174 10.3044 10.3273 10.3044C10.8371 10.3044 11.245 9.8965 11.245 9.38664C11.245 8.87677 10.8371 8.46888 10.3273 8.46888C9.8174 8.46888 9.40951 8.87677 9.40951 9.38664Z" fill="#658961"/>
</svg>
