<svg width="25" height="15" viewBox="0 0 25 15" fill="none" xmlns="http://www.w3.org/2000/svg">
<path d="M24.0373 13.5992C24.0082 13.535 23.9811 13.4822 23.9558 13.4393C23.5394 12.6729 22.7432 11.7319 21.5689 10.6165L21.5444 10.5904L21.5316 10.5781L21.5189 10.5651H21.5068C20.9737 10.0453 20.6359 9.69604 20.4944 9.51768C20.2359 9.17702 20.1777 8.83167 20.3191 8.48259C20.4194 8.21837 20.7938 7.66114 21.4439 6.80892C21.7854 6.35791 22.0565 5.9957 22.2557 5.72326C23.6974 3.76401 24.322 2.51214 24.1303 1.96706L24.0561 1.83985C24.0059 1.76341 23.8772 1.69285 23.669 1.62934C23.4608 1.56505 23.1941 1.55427 22.8692 1.5972L19.2699 1.62248C19.2122 1.6019 19.1284 1.60327 19.0204 1.62934C18.9119 1.65463 18.8573 1.66756 18.8573 1.66756L18.7952 1.6999L18.7457 1.73813C18.7037 1.76341 18.6581 1.80771 18.6079 1.872C18.5584 1.9357 18.5166 2.01057 18.4836 2.09563C18.0912 3.12622 17.6464 4.08408 17.146 4.96982C16.8375 5.49805 16.5544 5.95591 16.2961 6.34341C16.0377 6.73071 15.8213 7.01648 15.6468 7.19935C15.4716 7.38242 15.3136 7.52942 15.1719 7.63958C15.0297 7.75071 14.9219 7.79736 14.8469 7.7805C14.772 7.76286 14.7009 7.74601 14.6343 7.72915C14.5174 7.65271 14.4238 7.54844 14.3535 7.41613C14.2823 7.28442 14.2344 7.11821 14.2097 6.9177C14.1849 6.71778 14.17 6.54549 14.1654 6.40084C14.1617 6.25619 14.1639 6.05097 14.1721 5.78755C14.1803 5.52333 14.1849 5.34419 14.1849 5.25089C14.1849 4.9269 14.1909 4.57546 14.203 4.19659C14.2156 3.81752 14.2262 3.51744 14.2344 3.29615C14.2427 3.07486 14.2471 2.84064 14.2471 2.59329C14.2471 2.34671 14.2321 2.15306 14.203 2.01214C14.1744 1.87199 14.1303 1.73577 14.0718 1.60327C14.0134 1.47156 13.928 1.36905 13.8157 1.29712C13.7034 1.2244 13.5642 1.16697 13.3978 1.12405C12.956 1.02213 12.3935 0.96705 11.7106 0.957837C10.1612 0.940981 9.16578 1.04369 8.72387 1.26497C8.54864 1.35827 8.39066 1.48626 8.24918 1.64777C8.09945 1.83534 8.07836 1.93785 8.18629 1.95471C8.68648 2.03135 9.04001 2.21441 9.24898 2.50371L9.32375 2.65757C9.38223 2.76792 9.4407 2.96393 9.49841 3.2448C9.55669 3.52587 9.59427 3.83673 9.61056 4.17738C9.65255 4.7991 9.65255 5.33125 9.61056 5.77461C9.56954 6.21699 9.52985 6.56235 9.49227 6.80892C9.45489 7.05627 9.39872 7.256 9.32375 7.40986C9.24898 7.56314 9.19875 7.65643 9.17326 7.69093C9.14852 7.72464 9.12763 7.74601 9.11114 7.75443C9.00263 7.79736 8.89028 7.81872 8.77333 7.81872C8.65734 7.81872 8.51566 7.75914 8.34868 7.63958C8.18246 7.52021 8.00953 7.35635 7.83047 7.14722C7.65159 6.93906 7.44933 6.64741 7.22387 6.27226C6.99918 5.8977 6.76643 5.45532 6.52448 4.94375L6.32452 4.57331C6.19933 4.33516 6.0287 3.98824 5.81225 3.53194C5.59581 3.07643 5.40409 2.63621 5.23787 2.20971C5.17115 2.03135 5.07088 1.89512 4.93745 1.80085L4.87533 1.76263C4.83334 1.72891 4.76682 1.69285 4.67537 1.65384C4.58334 1.61562 4.48825 1.58799 4.38779 1.57113L0.963908 1.59641C0.614215 1.59641 0.376677 1.67756 0.251677 1.83907L0.201447 1.9157C0.176716 1.95863 0.164062 2.02664 0.164062 2.12013C0.164062 2.21441 0.188794 2.32927 0.239024 2.46549C0.739215 3.66601 1.28216 4.82439 1.86997 5.93984C2.4572 7.05627 2.96717 7.95436 3.40006 8.63566C3.83373 9.31717 4.27468 9.96025 4.72483 10.5643C5.17499 11.1692 5.47291 11.5567 5.61824 11.7274C5.76432 11.8981 5.87897 12.0251 5.96199 12.1102L6.27429 12.4171C6.47426 12.6216 6.76778 12.8666 7.15581 13.1514C7.54289 13.437 7.97214 13.718 8.44243 13.9952C8.91348 14.2715 9.46083 14.4973 10.0862 14.672C10.7108 14.8466 11.319 14.917 11.9106 14.8825H13.3477C13.6389 14.8572 13.86 14.7631 14.0097 14.6016L14.0592 14.5381C14.0927 14.4867 14.1242 14.4078 14.1527 14.3013C14.1819 14.1951 14.1968 14.0779 14.1968 13.9501C14.1886 13.584 14.2156 13.2541 14.2777 12.9601C14.3399 12.6669 14.411 12.4456 14.4905 12.2962C14.5699 12.1469 14.6589 12.0214 14.7593 11.9195C14.8588 11.817 14.9302 11.7556 14.9719 11.7343C15.0132 11.7127 15.0461 11.6982 15.0716 11.689C15.2716 11.621 15.5066 11.6876 15.7777 11.8874C16.0482 12.0881 16.3021 12.3344 16.5402 12.6284C16.7775 12.9224 17.063 13.2525 17.3954 13.6185C17.7294 13.9844 18.0208 14.257 18.2701 14.4362L18.5203 14.5893C18.6872 14.692 18.9037 14.7853 19.1704 14.8703C19.4369 14.956 19.6698 14.9775 19.8698 14.9346L23.0691 14.8833C23.3851 14.8833 23.6314 14.8297 23.8059 14.7233C23.9811 14.6169 24.0847 14.4997 24.1182 14.3727C24.152 14.2447 24.1535 14.1 24.1249 13.9377C24.095 13.7762 24.0659 13.6629 24.0373 13.5992Z" fill="#658961"/>
</svg>
