<svg width="74" height="58" viewBox="0 0 74 58" fill="none" xmlns="http://www.w3.org/2000/svg">
<path d="M17.9157 38.1645C20.9438 38.1645 23.2989 39.0851 24.9811 40.9264C26.8315 42.7677 27.7568 45.1111 27.7568 47.9567C27.7568 54.6522 23.8877 58 16.1494 58C11.1027 58 7.14947 56.1587 4.28968 52.4762C1.42989 48.6263 0 43.1862 0 36.1558C0 29.4603 1.51401 23.267 4.54202 17.5758C7.57003 11.7172 12.0279 5.94229 17.9157 0.251094C18.084 0.083698 18.3363 0 18.6727 0C19.1774 0 19.598 0.251084 19.9344 0.753252C20.2709 1.25542 20.2709 1.67389 19.9344 2.00866C11.6915 10.3781 7.57003 20.254 7.57003 31.6364C7.57003 36.3232 8.41114 39.7547 10.0934 41.9307C11.6074 39.4199 14.2148 38.1645 17.9157 38.1645Z" fill="#E3E8E2"/>
<path d="M64.1589 38.1645C67.1869 38.1645 69.542 39.0851 71.2243 40.9264C73.0747 42.7677 73.9999 45.1111 73.9999 47.9567C73.9999 54.6522 70.1308 58 62.3926 58C57.3459 58 53.3926 56.1587 50.5328 52.4762C47.6731 48.6263 46.2432 43.1862 46.2432 36.1558C46.2432 29.4603 47.7572 23.267 50.7852 17.5758C53.8132 11.7172 58.2711 5.94229 64.1589 0.251094C64.3271 0.083698 64.5795 0 64.9159 0C65.4206 0 65.8411 0.251084 66.1776 0.753252C66.514 1.25542 66.514 1.67389 66.1776 2.00866C57.9347 10.3781 53.8132 20.254 53.8132 31.6364C53.8132 36.3232 54.6543 39.7547 56.3365 41.9307C57.8505 39.4199 60.458 38.1645 64.1589 38.1645Z" fill="#E3E8E2"/>
</svg>
