<svg width="104" height="103" viewBox="0 0 104 103" fill="none" xmlns="http://www.w3.org/2000/svg">
<path d="M102.815 51.5C102.815 79.5561 80.0716 102.3 52.0156 102.3C23.9595 102.3 1.21562 79.5561 1.21562 51.5C1.21562 23.4439 23.9595 0.7 52.0156 0.7C80.0716 0.7 102.815 23.4439 102.815 51.5Z" stroke="#658961" stroke-width="1.4"/>
<path d="M46.9116 72.712V53.3107H39.4805V45.8895H46.9134V40.288C46.9134 33.8385 51.3363 30.2871 57.881 30.2871C61.0146 30.2871 63.765 30.4813 64.5511 30.5697V37.408H59.9044C56.3446 37.408 55.6785 38.8924 55.6785 41.0834V45.8895H64.1965L63.0899 53.3107H55.6785V72.712H46.9116Z" fill="#658961"/>
</svg>
