<svg width="103" height="103" viewBox="0 0 103 103" fill="none" xmlns="http://www.w3.org/2000/svg">
<path fill-rule="evenodd" clip-rule="evenodd" d="M51.4999 101.599C79.1693 101.599 101.6 79.1689 101.6 51.4997C101.6 23.8304 79.1693 1.4 51.4999 1.4C23.8305 1.4 1.4 23.8304 1.4 51.4997C1.4 79.1689 23.8305 101.599 51.4999 101.599ZM51.4999 102.999C79.9425 102.999 103 79.9421 103 51.4997C103 23.0572 79.9425 0 51.4999 0C23.0573 0 0 23.0572 0 51.4997C0 79.9421 23.0573 102.999 51.4999 102.999Z" fill="#658961"/>
<path fill-rule="evenodd" clip-rule="evenodd" d="M32.9277 30H70.9872C72.634 30 73.9149 31.2809 73.5489 32.7447V70.2553C73.5489 71.7192 72.2681 73 70.8043 73H32.7447C31.2809 73 30 71.7192 30 70.2553V32.7447C30 31.2809 31.2809 30 32.9277 30ZM37.5021 51.5915C37.5021 59.6426 44.0894 66.0468 51.9574 66.0468C59.8255 66.0468 66.4128 59.6426 66.4128 51.5915C66.4128 43.5404 60.0085 37.1362 51.9574 37.1362C43.9064 37.1362 37.5021 43.5404 37.5021 51.5915ZM65.8638 34.3915C65.8638 35.3064 66.5957 36.0383 67.5106 36.0383C68.6085 36.0383 69.1574 35.3064 69.1574 34.3915C69.1574 33.4766 68.4255 32.7447 67.5106 32.7447C66.5957 32.7447 65.8638 33.4766 65.8638 34.3915ZM41.1602 51.5916C41.1602 45.5533 46.1006 40.7959 51.9559 40.7959C57.8112 40.7959 62.7516 45.5533 62.7516 51.5916C62.7516 57.6299 57.9942 62.3874 51.9559 62.3874C45.9176 62.3874 41.1602 57.6299 41.1602 51.5916ZM46.1006 45.5533C46.1006 46.4682 46.8325 47.2002 47.7474 47.2002C48.6623 47.2002 49.3942 46.4682 49.3942 45.5533C49.3942 44.6385 48.6623 43.9065 47.7474 43.9065C46.8325 43.9065 46.1006 44.6385 46.1006 45.5533Z" fill="#658961"/>
</svg>
