<svg width="104" height="103" viewBox="0 0 104 103" fill="none" xmlns="http://www.w3.org/2000/svg">
<path fill-rule="evenodd" clip-rule="evenodd" d="M101.858 51.5C101.858 79.1695 79.4272 101.6 51.7577 101.6C24.0883 101.6 1.65781 79.1695 1.65781 51.5C1.65781 23.8305 24.0883 1.4 51.7577 1.4C79.4272 1.4 101.858 23.8305 101.858 51.5ZM103.258 51.5C103.258 79.9427 80.2004 103 51.7577 103C23.3151 103 0.257812 79.9427 0.257812 51.5C0.257812 23.0573 23.3151 0 51.7577 0C80.2004 0 103.258 23.0573 103.258 51.5ZM72.8778 60.9778C72.9231 61.052 72.9715 61.1431 73.0237 61.2542C73.0749 61.3644 73.1271 61.5602 73.1807 61.8394C73.2318 62.12 73.2291 62.37 73.1686 62.5913C73.1086 62.8109 72.9231 63.0135 72.6093 63.1975C72.2968 63.3815 71.8556 63.474 71.2897 63.474L65.5594 63.5628C65.2013 63.637 64.7841 63.5997 64.3068 63.4516C63.8292 63.3046 63.4415 63.1433 63.1424 62.9657L62.6943 62.7011C62.2479 62.3914 61.726 61.9201 61.1278 61.2875C60.5324 60.6548 60.0212 60.0842 59.5961 59.576C59.1696 59.0677 58.715 58.6418 58.2304 58.2948C57.7449 57.9496 57.3239 57.8344 56.9658 57.9519C56.9201 57.9679 56.8611 57.9929 56.7872 58.0302C56.7124 58.0671 56.5847 58.1732 56.4064 58.3504C56.2265 58.5266 56.0672 58.7435 55.925 59.0017C55.7825 59.2598 55.6551 59.6424 55.5439 60.1493C55.4326 60.6576 55.3842 61.2278 55.399 61.8608C55.399 62.0817 55.3722 62.2843 55.32 62.468C55.2688 62.652 55.2125 62.7885 55.1524 62.8773L55.0638 62.9871C54.7957 63.2663 54.3998 63.4289 53.8782 63.4726H51.3042C50.2446 63.5323 49.1554 63.4106 48.0367 63.1087C46.9166 62.8068 45.9362 62.4165 45.0926 61.9387C44.2503 61.4596 43.4815 60.9737 42.7882 60.48C42.0932 59.9877 41.5675 59.5641 41.2093 59.2107L40.65 58.6801C40.5013 58.533 40.296 58.3135 40.0343 58.0183C39.774 57.7232 39.2404 57.0533 38.4342 56.0077C37.6279 54.9634 36.8382 53.8517 36.0615 52.6735C35.2861 51.4957 34.3727 49.9432 33.321 48.0131C32.2682 46.0848 31.2958 44.0823 30.3999 42.0069C30.3099 41.7714 30.2656 41.5728 30.2656 41.4099C30.2656 41.2482 30.2883 41.1306 30.3326 41.0564L30.4225 40.924C30.6464 40.6448 31.0719 40.5045 31.6982 40.5045L37.8305 40.4608C38.0105 40.4899 38.1808 40.5377 38.3456 40.6038C38.5094 40.6712 38.6285 40.7335 38.7037 40.7918L38.815 40.8579C39.054 41.0209 39.2336 41.2564 39.3531 41.5647C39.6508 42.302 39.9941 43.063 40.3818 43.8505C40.7695 44.6393 41.0751 45.2391 41.2993 45.6508L41.6574 46.2912C42.0908 47.1755 42.5076 47.9403 42.9101 48.5878C43.3139 49.2363 43.6761 49.7405 43.9965 50.1004C44.3172 50.4619 44.627 50.7452 44.9247 50.9515C45.2237 51.1582 45.4775 51.2612 45.6852 51.2612C45.8947 51.2612 46.0959 51.2243 46.2903 51.1501C46.3198 51.1355 46.3572 51.0986 46.4015 51.0403C46.4472 50.9807 46.5371 50.8194 46.6711 50.5544C46.8053 50.2884 46.9059 49.9432 46.9729 49.5155C47.0402 49.0893 47.1113 48.4922 47.1848 47.7275C47.26 46.961 47.26 46.0411 47.1848 44.9663C47.1556 44.3774 47.0883 43.84 46.9839 43.3541C46.8805 42.8686 46.7758 42.5297 46.6711 42.3389L46.5371 42.073C46.1629 41.5728 45.5297 41.2564 44.6338 41.1239C44.4405 41.0947 44.4783 40.9175 44.7464 40.5933C44.9999 40.314 45.2828 40.0928 45.5966 39.9315C46.3881 39.549 48.1709 39.3714 50.9461 39.4005C52.1692 39.4165 53.1767 39.5117 53.9678 39.6879C54.2658 39.7621 54.5151 39.8614 54.7163 39.9871C54.9176 40.1114 55.0704 40.2886 55.1751 40.5163C55.2798 40.7454 55.3588 40.9809 55.41 41.2232C55.4622 41.4668 55.4889 41.8016 55.4889 42.2278C55.4889 42.6554 55.481 43.0603 55.4663 43.4429C55.4515 43.8254 55.4326 44.3442 55.41 44.9995C55.3883 45.6545 55.3777 46.262 55.3777 46.8221C55.3777 46.9834 55.3694 47.2931 55.3547 47.7499C55.3399 48.2053 55.3361 48.56 55.3427 48.8101C55.3509 49.0601 55.3777 49.358 55.422 49.7036C55.4663 50.0502 55.5521 50.3376 55.6795 50.5653C55.8055 50.794 55.9731 50.9742 56.1826 51.1064C56.3017 51.1355 56.4291 51.1647 56.5634 51.1952C56.6976 51.2243 56.8906 51.1437 57.1454 50.9515C57.3991 50.7611 57.6821 50.507 57.9959 50.1905C58.3084 49.8744 58.6961 49.3803 59.1589 48.7108C59.6215 48.0409 60.1286 47.2494 60.6811 46.3362C61.5773 44.805 62.374 43.1491 63.0768 41.3675C63.1359 41.2204 63.2108 41.091 63.2994 40.9809C63.3893 40.8697 63.471 40.7932 63.5462 40.7495L63.6348 40.6834L63.7461 40.6275C63.7461 40.6275 63.8439 40.6051 64.0383 40.5614C64.2316 40.5163 64.3817 40.514 64.485 40.5495L70.9316 40.5058C71.5136 40.4316 71.9912 40.4503 72.3641 40.5614C72.737 40.6712 72.9674 40.7932 73.0574 40.9253L73.1903 41.1452C73.5337 42.0875 72.4149 44.2517 69.8328 47.6387C69.476 48.1097 68.9905 48.7359 68.3789 49.5155C67.2145 50.9888 66.5439 51.9521 66.3643 52.4089C66.1109 53.0123 66.2153 53.6094 66.6782 54.1983C66.9316 54.5066 67.5366 55.1104 68.4915 56.009H68.5132L68.5358 56.0314L68.5588 56.0527L68.6028 56.0978C70.706 58.0261 72.132 59.6529 72.8778 60.9778Z" fill="#658961"/>
</svg>
