<svg width="20" height="20" viewBox="0 0 20 20" fill="none" xmlns="http://www.w3.org/2000/svg">
<path d="M19.7803 0.474102C19.5211 0.217787 19.1068 0.217787 18.8734 0.474102L10.1169 9.10945L1.12711 0.192236C0.867961 -0.0640788 0.453569 -0.0640788 0.220266 0.192236C-0.0388785 0.448551 -0.0388785 0.858419 0.220266 1.08917L9.21002 10.0064L0.194359 18.9236C-0.0647862 19.1799 -0.0647862 19.5898 0.194359 19.8205C0.323931 19.9487 0.479346 20 0.660593 20C0.842031 20 0.997441 19.9487 1.12683 19.8205L10.1425 10.9033L18.8732 19.5387C19.0027 19.6668 19.1582 19.7181 19.3394 19.7181C19.5208 19.7181 19.6763 19.6668 19.8056 19.5387C20.0648 19.2824 20.0648 18.8725 19.8056 18.6417L11.0495 10.0064L19.7802 1.37104C20.0133 1.11473 20.0133 0.70472 19.7802 0.474102H19.7803Z" fill="#15161A"/>
</svg>
