<svg width="30" height="21" viewBox="0 0 30 21" fill="none" xmlns="http://www.w3.org/2000/svg">
<path fill-rule="evenodd" clip-rule="evenodd" d="M28.8281 0.650391H1.17188C0.524648 0.650391 0 1.10747 0 1.67134C0 2.23522 0.524648 2.6923 1.17188 2.6923H28.8281C29.4754 2.6923 30 2.23522 30 1.67134C30 1.10747 29.4754 0.650391 28.8281 0.650391ZM28.8281 9.62959H1.17188C0.524648 9.62959 0 10.0867 0 10.6505C0 11.2144 0.524648 11.6715 1.17188 11.6715H28.8281C29.4754 11.6715 30 11.2144 30 10.6505C30 10.0867 29.4754 9.62959 28.8281 9.62959ZM1.17188 18.6083H28.8281C29.4754 18.6083 30 19.0654 30 19.6292C30 20.1931 29.4754 20.6502 28.8281 20.6502H1.17188C0.524648 20.6502 0 20.1931 0 19.6292C0 19.0654 0.524648 18.6083 1.17188 18.6083Z" fill="white"/>
</svg>
