<svg width="44" height="46" viewBox="0 0 44 46" fill="none" xmlns="http://www.w3.org/2000/svg">
<path d="M43.9717 43.4402C43.9792 43.3921 44 43.3486 44 43.2983C44 43.2188 43.9738 43.1476 43.955 43.074C43.9492 43.0501 43.9596 43.0254 43.9517 43.002L40.4405 32.411C40.4376 32.4026 40.4301 32.3972 40.4271 32.3892C40.3822 32.2641 40.3156 32.1452 40.2156 32.0447L8.61557 0.274707C8.25124 -0.0915691 7.66083 -0.0915691 7.29693 0.274707L0.273949 7.33437C-0.0903805 7.70065 -0.0903805 8.29421 0.273949 8.66006L5.53903 13.9533C5.53986 13.9541 5.53986 13.955 5.54069 13.9554C5.54152 13.9562 5.54236 13.9562 5.54277 13.957L31.8751 40.4312C31.975 40.5317 32.0933 40.5986 32.2178 40.6438C32.2257 40.6468 32.2315 40.6547 32.2394 40.6572L37.3217 42.3606H11.468C10.9525 42.3606 10.5353 42.78 10.5353 43.2982C10.5353 43.8164 10.9525 44.2359 11.468 44.2359H43.068C43.1908 44.2359 43.312 44.2108 43.4253 44.1635C43.6813 44.0567 43.8666 43.834 43.9474 43.5644C43.9599 43.5226 43.9653 43.4841 43.9724 43.4406L43.9717 43.4402ZM41.5926 41.8157L39.5269 41.1233L40.9039 39.739L41.5926 41.8157ZM7.51852 13.2926L8.87671 11.9267C8.92126 12.0205 8.97331 12.1126 9.05075 12.1904L31.8741 35.1358C32.056 35.3187 32.295 35.4104 32.5336 35.4104C32.7722 35.4104 33.0108 35.3187 33.1931 35.1358C33.5575 34.7695 33.5575 34.1759 33.1931 33.8101L10.3698 10.8648C10.2924 10.7869 10.2008 10.7342 10.1075 10.6894L13.2216 7.55823L38.2375 32.7079L32.534 38.4427L7.51852 13.2926ZM4.8854 10.6454L10.5885 4.91101L11.9029 6.23252L6.19946 11.9669L4.8854 10.6454ZM39.1481 34.4427L40.2444 37.7495L37.5484 40.46L34.2598 39.3578L39.1481 34.4427ZM7.95523 2.26327L9.26971 3.58478L3.56623 9.31919L2.25174 7.99725L7.95523 2.26327ZM8.60644 42.6341C8.79297 42.8036 8.88624 43.0472 8.88624 43.3088C8.88624 43.4214 8.86792 43.534 8.81171 43.6659C8.77424 43.7777 8.6997 43.8719 8.60685 43.9652C8.43906 44.1347 8.19589 44.2281 7.95398 44.2281C7.71165 44.2281 7.46932 44.1347 7.30111 43.9652C7.11457 43.7781 7.02047 43.5537 7.02047 43.3093C7.02047 43.0472 7.11416 42.804 7.30028 42.6345C7.63628 42.2971 8.27043 42.2778 8.60645 42.6341L8.60644 42.6341ZM5.37661 43.298C5.37661 43.8162 4.9594 44.2356 4.44394 44.2356H3.62035V45.0623C3.62035 45.5806 3.20314 46 2.68768 46C2.17221 46 1.755 45.5806 1.755 45.0623V44.2356H0.932674C0.417209 44.2356 0 43.8162 0 43.298C0 42.7797 0.417209 42.3603 0.932674 42.3603H1.755V41.5327C1.755 41.0145 2.17221 40.5951 2.68768 40.5951C3.20314 40.5951 3.62035 41.0145 3.62035 41.5327V42.3603H4.44353C4.95941 42.3603 5.37661 42.7797 5.37661 43.298ZM12.3992 36.2374C12.3992 35.8071 12.1077 35.4316 11.6926 35.3282C10.2944 34.9766 9.20976 33.8862 8.86088 32.4805C8.75679 32.0628 8.3833 31.7698 7.95527 31.7698C7.52724 31.7698 7.15459 32.0628 7.05091 32.4801C6.70116 33.8858 5.61566 34.9762 4.21835 35.3278C3.80323 35.4312 3.51177 35.8067 3.51177 36.237C3.51177 36.6673 3.80323 37.042 4.21752 37.1462C5.61568 37.4978 6.7012 38.5904 7.05093 39.9948C7.15461 40.4121 7.52726 40.7051 7.95529 40.7051C8.38332 40.7051 8.75681 40.4121 8.86049 39.9948C9.2094 38.59 10.294 37.4987 11.693 37.1462C12.1077 37.042 12.3992 36.6678 12.3992 36.2374H12.3992ZM7.95527 37.5715C7.58803 37.057 7.14002 36.6062 6.62917 36.2374C7.14006 35.8695 7.58807 35.4187 7.95527 34.9042C8.32126 35.4187 8.76969 35.8695 9.28137 36.2374C8.76923 36.6062 8.32122 37.0566 7.95527 37.5715Z" fill="white"/>
</svg>
