<svg width="116" height="35" viewBox="0 0 116 35" fill="none" xmlns="http://www.w3.org/2000/svg">
<path d="M66.487 12.2288C65.6945 11.2915 64.8075 10.4397 63.8405 9.66207C63.0768 9.04646 62.258 8.48292 61.3957 7.95622C61.1097 7.78228 60.8173 7.61458 60.5211 7.44824C60.4122 7.3876 60.304 7.32773 60.1951 7.26962C60.1307 7.23472 60.0691 7.19982 60.0035 7.16647C60.0623 7.19221 60.1189 7.21931 60.175 7.24505C60.3094 7.30804 60.4429 7.37024 60.5747 7.43576C60.8795 7.58318 61.1793 7.73742 61.4695 7.89693C61.7695 8.0621 62.0635 8.23155 62.3507 8.40626C62.9194 8.75453 63.4607 9.1256 63.9781 9.51892C64.3783 9.8237 64.7616 10.1429 65.132 10.4768C65.9698 11.2336 66.7327 12.0635 67.4117 12.9687C67.7482 13.417 68.0658 13.8834 68.3656 14.3664C68.512 14.6035 68.6642 14.8338 68.8162 15.0639C68.7238 8.6283 64.3343 6.55564 58.2432 6.69392C60.0114 7.2329 61.3025 9.47184 61.8688 10.9166C63.7112 15.6051 65.9714 15.1516 68.6239 15.5114C68.3436 14.9219 68.0831 14.4153 67.985 14.2624C67.5286 13.5442 67.0289 12.8683 66.4868 12.2287L66.487 12.2288Z" fill="white"/>
<path d="M70.3014 15.2441C70.3466 14.9744 70.3951 14.7044 70.444 14.4452C70.366 14.4766 70.2878 14.5078 70.21 14.5407C70.1528 14.3383 70.1031 14.141 70.0538 13.9438C69.8165 14.6439 69.5845 15.3455 69.457 16.1081C69.2586 15.7444 69.0376 15.403 68.8134 15.0637C68.8154 15.2203 68.8178 15.3765 68.8148 15.5381C68.7496 15.5284 68.6855 15.5196 68.6211 15.5108C68.7089 15.6953 68.7984 15.8881 68.8856 16.0806C69.1934 16.7616 69.0176 17.408 69.5252 17.75C69.694 17.8634 70.0239 17.5733 70.0522 17.5417C70.5756 16.9509 70.1406 16.1952 70.3013 15.2441L70.3014 15.2441Z" fill="white"/>
<path d="M70.0576 14.6455C70.1719 14.3084 70.2876 13.972 70.3925 13.628C70.6083 12.9266 70.8517 12.2406 71.1247 11.5712C71.6767 10.2199 72.3578 8.93695 73.1584 7.72076C73.5125 7.18513 73.8877 6.66272 74.288 6.15354C74.8064 5.4958 75.3629 4.85818 75.9605 4.24003C76.2637 3.92998 76.5764 3.62422 76.8976 3.32196C77.2088 3.02927 77.5335 2.74085 77.8676 2.4589C78.0114 2.33527 78.1586 2.21399 78.3054 2.0927C78.3678 2.04258 78.4307 1.99032 78.4947 1.94001C78.4237 2.003 78.3575 2.06618 78.2884 2.12975C78.1716 2.23738 78.0551 2.34639 77.939 2.45734C77.6222 2.76018 77.3111 3.06362 77.0097 3.37227C76.1023 4.30651 75.262 5.2741 74.5076 6.28886C73.552 7.5708 72.7224 8.92172 72.0391 10.3485C71.5713 11.3235 71.1692 12.3305 70.8343 13.3762C70.7619 13.5985 70.6029 14.3169 70.4473 15.1464C73.6571 13.8538 76.6433 13.706 77.399 7.23768C77.63 5.245 78.5068 2.02559 80.5473 0.788086C72.8588 2.54755 68.038 6.54081 70.0575 14.6457L70.0576 14.6455Z" fill="white"/>
<path d="M11.3416 34.7883C9.71452 34.7883 8.20231 34.5329 6.80495 34.0223C5.42673 33.5116 4.23036 32.7929 3.21584 31.8661C2.20132 30.9204 1.40693 29.8139 0.832673 28.5467C0.277558 27.2795 0 25.8988 0 24.4046C0 22.8915 0.277558 21.5108 0.832673 20.2625C1.40693 18.9953 2.20132 17.8983 3.21584 16.9715C4.23036 16.0258 5.42673 15.2977 6.80495 14.787C8.20231 14.2763 9.71452 14.021 11.3416 14.021C12.9878 14.021 14.5 14.2763 15.8782 14.787C17.2564 15.2977 18.4528 16.0258 19.4673 16.9715C20.4818 17.8983 21.2667 18.9953 21.8218 20.2625C22.396 21.5108 22.6832 22.8915 22.6832 24.4046C22.6832 25.8988 22.396 27.2795 21.8218 28.5467C21.2667 29.8139 20.4818 30.9204 19.4673 31.8661C18.4528 32.7929 17.2564 33.5116 15.8782 34.0223C14.5 34.5329 12.9878 34.7883 11.3416 34.7883ZM11.3416 29.3695C11.9733 29.3695 12.5571 29.256 13.0931 29.029C13.6482 28.8021 14.1267 28.4805 14.5287 28.0644C14.9498 27.6294 15.2752 27.1093 15.505 26.504C15.7347 25.8799 15.8495 25.1801 15.8495 24.4046C15.8495 23.6292 15.7347 22.9388 15.505 22.3336C15.2752 21.7094 14.9498 21.1893 14.5287 20.7732C14.1267 20.3382 13.6482 20.0072 13.0931 19.7802C12.5571 19.5533 11.9733 19.4398 11.3416 19.4398C10.7099 19.4398 10.1165 19.5533 9.56139 19.7802C9.02541 20.0072 8.54687 20.3382 8.12574 20.7732C7.72376 21.1893 7.40792 21.7094 7.17822 22.3336C6.94852 22.9388 6.83366 23.6292 6.83366 24.4046C6.83366 25.1801 6.94852 25.8799 7.17822 26.504C7.40792 27.1093 7.72376 27.6294 8.12574 28.0644C8.54687 28.4805 9.02541 28.8021 9.56139 29.029C10.1165 29.256 10.7099 29.3695 11.3416 29.3695Z" fill="white"/>
<path d="M31.201 30.0787L30.8278 22.7308L38.408 14.4749H45.7872L37.2882 23.7237L33.5268 27.5254L31.201 30.0787ZM25.1426 34.3343V14.4749H31.804V34.3343H25.1426ZM38.3505 34.3343L32.4357 26.6175L36.8287 22.0215L46.1891 34.3343H38.3505Z" fill="white"/>
<path d="M53.4147 22.9294H62.2583V27.9793H53.4147V22.9294ZM53.8741 34.3343H47.0979V14.4749H63.4355V19.5249H53.8741V34.3343Z" fill="white"/>
<path d="M65.5762 34.3343V14.4749H72.3524V34.3343H65.5762Z" fill="white"/>
<path d="M79.9788 34.3343V19.6667H74.0927V14.4749H92.6412V19.6667H86.755V34.3343H79.9788Z" fill="white"/>
<path d="M104.658 34.7883C103.031 34.7883 101.519 34.5329 100.122 34.0223C98.7436 33.5116 97.5472 32.7929 96.5327 31.8661C95.5181 30.9204 94.7238 29.8139 94.1495 28.5467C93.5944 27.2795 93.3168 25.8988 93.3168 24.4046C93.3168 22.8915 93.5944 21.5108 94.1495 20.2625C94.7238 18.9953 95.5181 17.8983 96.5327 16.9715C97.5472 16.0258 98.7436 15.2977 100.122 14.787C101.519 14.2763 103.031 14.021 104.658 14.021C106.305 14.021 107.817 14.2763 109.195 14.787C110.573 15.2977 111.77 16.0258 112.784 16.9715C113.799 17.8983 114.583 18.9953 115.139 20.2625C115.713 21.5108 116 22.8915 116 24.4046C116 25.8988 115.713 27.2795 115.139 28.5467C114.583 29.8139 113.799 30.9204 112.784 31.8661C111.77 32.7929 110.573 33.5116 109.195 34.0223C107.817 34.5329 106.305 34.7883 104.658 34.7883ZM104.658 29.3695C105.29 29.3695 105.874 29.256 106.41 29.029C106.965 28.8021 107.444 28.4805 107.846 28.0644C108.267 27.6294 108.592 27.1093 108.822 26.504C109.051 25.8799 109.166 25.1801 109.166 24.4046C109.166 23.6292 109.051 22.9388 108.822 22.3336C108.592 21.7094 108.267 21.1893 107.846 20.7732C107.444 20.3382 106.965 20.0072 106.41 19.7802C105.874 19.5533 105.29 19.4398 104.658 19.4398C104.027 19.4398 103.433 19.5533 102.878 19.7802C102.342 20.0072 101.864 20.3382 101.443 20.7732C101.041 21.1893 100.725 21.7094 100.495 22.3336C100.265 22.9388 100.15 23.6292 100.15 24.4046C100.15 25.1801 100.265 25.8799 100.495 26.504C100.725 27.1093 101.041 27.6294 101.443 28.0644C101.864 28.4805 102.342 28.8021 102.878 29.029C103.433 29.256 104.027 29.3695 104.658 29.3695Z" fill="white"/>
</svg>
